<svg width="28" height="27" viewBox="0 0 28 27" fill="none" xmlns="http://www.w3.org/2000/svg">
<path d="M18.561 24.1302C15.788 20.7672 12.2715 18.066 9.09808 15.1018C7.77181 13.863 6.40266 12.6698 5.08141 11.4263C4.2001 10.5968 3.34105 9.71551 2.68928 8.68897C2.28435 8.0512 2.099 7.4045 2.11257 6.6583C2.11899 6.30502 2.28205 5.93131 2.49434 5.65109C2.70995 5.36648 3.04471 5.15651 3.36346 5.0094C4.45639 4.50497 5.70897 4.25534 6.8684 3.95751C8.53503 3.52938 10.5995 2.90216 12.3065 3.51076C13.6758 3.99892 15.1722 5.17667 15.7343 6.54458C16.284 7.88247 15.7224 9.28185 14.9058 10.3785C14.6558 10.7143 14.3407 11.076 13.9717 11.2882C13.4903 11.565 13.8124 10.8956 13.8864 10.7196C14.6638 8.87108 15.7009 6.82052 17.1801 5.4399C19.1413 3.60945 21.9377 2.45054 24.5393 1.91465C24.9261 1.83497 25.5903 1.65625 25.9689 1.89841C26.282 2.09866 26.3312 2.62531 26.3669 2.94623C26.4925 4.0762 26.466 5.23976 26.4563 6.37401C26.436 8.73684 26.2582 11.1122 25.5628 13.3839C24.9931 15.2447 24.0431 16.9343 23.0204 18.5783C22.196 19.9036 21.3214 21.1929 20.3155 22.3879C19.6885 23.1327 19.0706 23.8649 18.4879 24.6419" stroke="black" stroke-width="3" stroke-linecap="round"/>
</svg>
