<svg width="79" height="38" viewBox="0 0 79 38" fill="none" xmlns="http://www.w3.org/2000/svg">
<path d="M18.7321 4.53413C17.4752 5.7529 13.3647 8.01211 12.5227 4.88466C11.977 2.85787 16.8437 1.8001 17.3801 3.00682C18.1721 4.78884 19.116 6.82092 16.9294 7.91424C15.0314 8.86322 14.2253 8.99387 14.2253 6.78754" stroke="black" stroke-width="3" stroke-linecap="round"/>
<path d="M56.5893 3.18206C54.7583 5.96258 49.8802 8.32453 46.424 6.68736C44.4158 5.73612 50.4626 3.1236 51.6318 3.18206C55.2132 3.36112 54.0947 7.79239 51.3815 8.49008C50.7667 8.64816 49.6821 8.83534 49.8542 7.88918C50.108 6.49316 52.2939 6.17131 53.4346 5.88615" stroke="black" stroke-width="3" stroke-linecap="round"/>
<path d="M1.6062 21.2093C3.95066 24.2752 6.2203 27.179 8.36643 30.3982C11.5819 35.2214 17.4187 36.2495 22.8133 36.0568C31.5907 35.7433 40.0676 32.727 48.3269 30.0227C55.4379 27.6943 62.0869 24.5336 68.908 21.5098C71.6006 20.3162 74.4225 19.0849 77.3207 18.5052" stroke="black" stroke-width="3" stroke-linecap="round"/>
</svg>
